<svg width="24" height="26" viewBox="0 0 24 26" fill="none" xmlns="http://www.w3.org/2000/svg">
<path d="M16.4211 0H2.52632C1.13684 0 0 1.06364 0 2.36364V17.7273C0 18.3773 0.568421 18.9091 1.26316 18.9091C1.95789 18.9091 2.52632 18.3773 2.52632 17.7273V3.54545C2.52632 2.89545 3.09474 2.36364 3.78947 2.36364H16.4211C17.1158 2.36364 17.6842 1.83182 17.6842 1.18182C17.6842 0.531818 17.1158 0 16.4211 0ZM21.4737 4.72727H7.57895C6.18947 4.72727 5.05263 5.79091 5.05263 7.09091V23.6364C5.05263 24.9364 6.18947 26 7.57895 26H21.4737C22.8632 26 24 24.9364 24 23.6364V7.09091C24 5.79091 22.8632 4.72727 21.4737 4.72727ZM20.2105 23.6364H8.8421C8.14737 23.6364 7.57895 23.1045 7.57895 22.4545V8.27273C7.57895 7.62273 8.14737 7.09091 8.8421 7.09091H20.2105C20.9053 7.09091 21.4737 7.62273 21.4737 8.27273V22.4545C21.4737 23.1045 20.9053 23.6364 20.2105 23.6364Z" fill="#787878"/>
</svg>
