<svg width="21" height="19" viewBox="0 0 21 19" fill="none" xmlns="http://www.w3.org/2000/svg">
<path d="M2.1 7.5H18.9C19.7306 7.5 20.5 8.27529 20.5 9.33333C20.5 10.3914 19.7306 11.1667 18.9 11.1667H2.1C1.26939 11.1667 0.5 10.3914 0.5 9.33333C0.5 8.27529 1.26939 7.5 2.1 7.5Z" fill="white" stroke="white"/>
<path d="M14.7 4.16667H2.1C1.26939 4.16667 0.5 3.39138 0.5 2.33333C0.5 1.27529 1.26939 0.5 2.1 0.5H14.7C15.5306 0.5 16.3 1.27529 16.3 2.33333C16.3 3.39138 15.5306 4.16667 14.7 4.16667Z" fill="white" stroke="white"/>
<path d="M2.1 14.5H14.7C15.5306 14.5 16.3 15.2753 16.3 16.3333C16.3 17.3914 15.5306 18.1667 14.7 18.1667H2.1C1.26939 18.1667 0.5 17.3914 0.5 16.3333C0.5 15.2753 1.26939 14.5 2.1 14.5Z" fill="white" stroke="white"/>
</svg>
