<svg width="83" height="70" viewBox="0 0 83 70" fill="none" xmlns="http://www.w3.org/2000/svg">
<path d="M22.6404 69.93C17.4882 69.5437 12.5927 67.5773 8.65289 64.3117C4.71311 61.0462 1.93052 56.6484 0.702453 51.7463C-0.525617 46.8442 -0.136376 41.6885 1.8146 37.0153C3.76557 32.3422 7.17851 28.3905 11.5661 25.7246C12.4997 18.6152 16.0539 12.0817 21.5636 7.3468C27.0733 2.61186 34.1609 0 41.5 0C48.8391 0 55.9267 2.61186 61.4364 7.3468C66.9461 12.0817 70.5003 18.6152 71.4339 25.7246C75.8215 28.3905 79.2344 32.3422 81.1854 37.0153C83.1364 41.6885 83.5256 46.8442 82.2975 51.7463C81.0695 56.6484 78.2869 61.0462 74.3471 64.3117C70.4073 67.5773 65.5118 69.5437 60.3596 69.93V70H22.6404V69.93ZM45.2719 40.5297H56.5876L41.5 22.1108L26.4123 40.5297H37.7281V55.2649H45.2719V40.5297Z" fill="#C1C1C1"/>
</svg>
